<svg id="Layer_1" data-name="Layer 1" xmlns="http://www.w3.org/2000/svg" viewBox="0 0 512 512"><path d="M434.75,444h-344V368.92A74,74,0,0,1,164.67,295H360.83a74,74,0,0,1,73.92,73.92Zm-340-4h336V368.92A70,70,0,0,0,360.83,299H164.67a70,70,0,0,0-69.92,69.92Z" style="stroke:#000;stroke-miterlimit:10;stroke-width:4px"/><path d="M262.75,258a94.5,94.5,0,1,1,94.5-94.5A94.6,94.6,0,0,1,262.75,258Zm0-185a90.5,90.5,0,1,0,90.5,90.5A90.6,90.6,0,0,0,262.75,73Z" style="stroke:#000;stroke-miterlimit:10;stroke-width:4px"/></svg>