<svg id="Layer_1" data-name="Layer 1" xmlns="http://www.w3.org/2000/svg" viewBox="0 0 512 512"><path d="M354.58,439.5H157.42a28,28,0,0,1-27.92-27.92V100.42A28,28,0,0,1,157.42,72.5H354.58a28,28,0,0,1,27.92,27.92V411.58A28,28,0,0,1,354.58,439.5ZM157.42,76.5a24,24,0,0,0-23.92,23.92V411.58a24,24,0,0,0,23.92,23.92H354.58a24,24,0,0,0,23.92-23.92V100.42A24,24,0,0,0,354.58,76.5Z" style="stroke:#000;stroke-miterlimit:10;stroke-width:3px"/><path d="M354,410H158V102H354Zm-192-4H350V106H162Z" style="stroke:#000;stroke-miterlimit:10;stroke-width:3px"/><rect x="238.5" y="124.5" width="21" height="4" style="stroke:#000;stroke-miterlimit:10;stroke-width:3px"/><rect x="271.5" y="124.5" width="61" height="4" style="stroke:#000;stroke-miterlimit:10;stroke-width:3px"/><rect x="238" y="155" width="27.5" height="4" style="stroke:#000;stroke-miterlimit:10;stroke-width:3px"/><rect x="275.5" y="155" width="16" height="4" style="stroke:#000;stroke-miterlimit:10;stroke-width:3px"/><rect x="301.5" y="155" width="31" height="4" style="stroke:#000;stroke-miterlimit:10;stroke-width:3px"/><rect x="179.5" y="188.5" width="69" height="4" style="stroke:#000;stroke-miterlimit:10;stroke-width:3px"/><rect x="258" y="188.5" width="74.5" height="4" style="stroke:#000;stroke-miterlimit:10;stroke-width:3px"/><rect x="179.5" y="218.5" width="112" height="4" style="stroke:#000;stroke-miterlimit:10;stroke-width:3px"/><rect x="301.5" y="218.5" width="31" height="4" style="stroke:#000;stroke-miterlimit:10;stroke-width:3px"/><rect x="179.5" y="251" width="19.5" height="4" style="stroke:#000;stroke-miterlimit:10;stroke-width:3px"/><rect x="208.92" y="251" width="72.08" height="4" style="stroke:#000;stroke-miterlimit:10;stroke-width:3px"/><rect x="179.5" y="284.5" width="101.5" height="4" style="stroke:#000;stroke-miterlimit:10;stroke-width:3px"/><rect x="179.5" y="316" width="43" height="4" style="stroke:#000;stroke-miterlimit:10;stroke-width:3px"/><rect x="231" y="316" width="25.5" height="4" style="stroke:#000;stroke-miterlimit:10;stroke-width:3px"/><rect x="264.5" y="316" width="25.5" height="4" style="stroke:#000;stroke-miterlimit:10;stroke-width:3px"/><rect x="298.5" y="316" width="34" height="4" style="stroke:#000;stroke-miterlimit:10;stroke-width:3px"/><rect x="230" y="353" width="53.25" height="4" style="stroke:#000;stroke-miterlimit:10;stroke-width:3px"/><rect x="291.29" y="353" width="41.21" height="4" style="stroke:#000;stroke-miterlimit:10;stroke-width:3px"/><rect x="230" y="384.5" width="102.5" height="4" style="stroke:#000;stroke-miterlimit:10;stroke-width:3px"/><path d="M227,162.38H177.5V119H227Zm-45.5-4H223V123H181.5Z" style="stroke:#000;stroke-miterlimit:10;stroke-width:3px"/><path d="M334.5,288.81H292V248.9h42.5Zm-38.5-4h34.5V252.9H296Z" style="stroke:#000;stroke-miterlimit:10;stroke-width:3px"/><path d="M220,390.5H177.5V350.59H220Zm-38.5-4H216V354.59H181.5Z" style="stroke:#000;stroke-miterlimit:10;stroke-width:3px"/></svg>