<svg id="Layer_1" data-name="Layer 1" xmlns="http://www.w3.org/2000/svg" viewBox="0 0 1366 341.5"><path d="M157.27,111.67a20.79,20.79,0,0,1-4.22,12.79,19.66,19.66,0,0,1-10.62,7.41V236.22q0,10-2.81,13.18t-8.7,4c-3.75.68-6.22.6-7.41-.26Q103,239,56.24,206.81q-4.53-2.55-13.09-9.74-3-3.07-3-18.46V132a19,19,0,0,1-10.75-7.43A20.88,20.88,0,0,1,25.29,112a20.18,20.18,0,0,1,6-14.61,19.5,19.5,0,0,1,14.45-6.15,20.89,20.89,0,0,1,14.71,6.28,20.32,20.32,0,0,1,1.41,27.3A20.16,20.16,0,0,1,50.36,132v46.66a74.91,74.91,0,0,0,1,11.28A20.3,20.3,0,0,0,57,195.55l66.8,46q5.85,1.8,7.63-.26l.76-5.11V131.85a19.75,19.75,0,0,1-11.64-7.15,20.36,20.36,0,0,1-4.47-13,20.5,20.5,0,0,1,20.46-20.45,20.11,20.11,0,0,1,14.58,6A19.51,19.51,0,0,1,157.27,111.67Zm-101,.51a10.48,10.48,0,0,0-10.49-10.49,9.71,9.71,0,0,0-7.29,3.07,10.34,10.34,0,0,0-2.94,7.42,10,10,0,0,0,10.23,10.23,10.34,10.34,0,0,0,7.42-2.94A9.67,9.67,0,0,0,56.24,112.18Zm90.8-.26a10.48,10.48,0,0,0-10.49-10.48,9.67,9.67,0,0,0-7.29,3.07,10.32,10.32,0,0,0-2.94,7.41,10.05,10.05,0,0,0,2.94,7.17,9.7,9.7,0,0,0,7.29,3.06,10.13,10.13,0,0,0,7.42-3.06A9.86,9.86,0,0,0,147,111.92Z"/><path d="M290.77,234.69q0,10-2.81,13.3-3.84,4.09-14.84,3.58H204.58q-11.51,0-14.58-3.45t-3.07-13.43V110q0-10.23,3.07-13.56t14.58-3.32h68.54q11-.51,14.84,3.58,2.81,3.31,2.81,13.3Zm-10.23,0V110a12.78,12.78,0,0,0-.77-5.12q-1.78-2-7.16-1.53H205.09q-5.37-.51-7.16,1.53l-.77,5.12V234.69q-.25,3.59.77,5.11,1.53,2.31,7.42,2h67.77c3.41,0,5.54-.59,6.4-1.79S280.71,237.08,280.54,234.69Z"/><path d="M454.2,213.72a20.34,20.34,0,0,1-4.47,13,19.72,19.72,0,0,1-11.64,7.16v7.68a9.66,9.66,0,0,1-2.56,5.62q-3.33,3.59-14.83,3.58h-68q-11.51,0-14.58-3.32T335,233.92V107.69a67.54,67.54,0,0,0,.51-7.16,9.5,9.5,0,0,1,2.3-5.88q3.32-3.59,14.83-3.58h68q11.51,0,14.83,3.58,2.55,2.56,2.56,13.3a19.72,19.72,0,0,1,11.64,7.16,20.78,20.78,0,0,1-1.54,27.49,19.69,19.69,0,0,1-14.45,6,20.62,20.62,0,0,1-5.88-40.41,10.49,10.49,0,0,0-.51-5.37q-1.55-2-6.65-1.53H352.92q-5.37-.51-6.91,1.53l-.76,5.12v126A12.54,12.54,0,0,0,346,239c1,1.36,3.33,1.88,6.91,1.53H420.7c3.4.35,5.62-.17,6.65-1.53.16-1.19.34-3,.51-5.37a21.67,21.67,0,0,1-10.62-7.42,20.53,20.53,0,0,1,1.79-27,20,20,0,0,1,14.71-6,20.52,20.52,0,0,1,20.46,20.46Zm-9.46-85.57a10,10,0,0,0-10.23-10.23,9.31,9.31,0,0,0-7.42,2.82,10.49,10.49,0,0,0,7.42,17.9,10.85,10.85,0,0,0,7.29-3.2A9.92,9.92,0,0,0,444.74,128.15Zm0,85.57a10.39,10.39,0,0,0-2.94-7.42,9.71,9.71,0,0,0-7.29-3.07A10.48,10.48,0,0,0,424,213.72a9.67,9.67,0,0,0,3.07,7.29,10.34,10.34,0,0,0,7.42,2.94,9.74,9.74,0,0,0,7.29-3.07A10.07,10.07,0,0,0,444.74,213.72Z"/><path d="M596,172.8v65.42c0,6-1.06,10.18-3.19,12.57s-7.13,3.59-15,3.59H509.53q-11.26.52-14.84-3.59-2.82-3.33-2.81-13.33V180c0-6.66,1.06-11.24,3.19-13.71s6.95-3.55,14.46-3.21h76.21v-57.3a12.87,12.87,0,0,0-.76-5.11q-1.8-2-7.17-1.53H510.29c-3.41-.34-5.62.17-6.65,1.53q-.25,1.78-.51,5.37a21.72,21.72,0,0,1,10.62,7.42A19.72,19.72,0,0,1,518,126a19.49,19.49,0,0,1-6.14,14.45,20.13,20.13,0,0,1-14.58,6A20.52,20.52,0,0,1,476.79,126a20.36,20.36,0,0,1,4.47-13,19.72,19.72,0,0,1,11.64-7.17V98.11a9.57,9.57,0,0,1,2.56-5.62q3.06-3.58,14.83-3.59h68c7.67,0,12.53,1.12,14.57,3.33S596,99,596,105.78v57.3M506.71,126a10,10,0,0,0-10.23-10.23,10.34,10.34,0,0,0-7.42,2.94A9.71,9.71,0,0,0,486,126a10.48,10.48,0,0,0,10.49,10.49,9.71,9.71,0,0,0,7.29-3.07A10.34,10.34,0,0,0,506.71,126Zm79,46.81H509.53c-3.42,0-5.55.59-6.4,1.79s-1.19,3-1,5.39v57.5a12.69,12.69,0,0,0,.77,5.14c1,1.36,3.32,1.88,6.9,1.53h67.78q5.37.53,6.78-1.28a8.22,8.22,0,0,0,1.4-5.13Z"/><path d="M713.47,192.49h-4.05a20.48,20.48,0,0,1-7.29,11,19.47,19.47,0,0,1-12.4,4.34,19.91,19.91,0,0,1-14.58-6.13,19,19,0,0,1-5.88-14.58,20.57,20.57,0,0,1,33.37-16,21.21,21.21,0,0,1,7.29,11.64h3.54m-13.26,4.35a10.89,10.89,0,0,0-3.19-7.29,10.23,10.23,0,0,0-17.52,7.29,9.21,9.21,0,0,0,2.81,7.41,10.49,10.49,0,0,0,17.9-7.41Zm13.26-4.35h4.12q11.25-.77,14.83,3.59,2.82,3.09,2.82,13.1v38c0,6.68-1,11.13-2.82,13.35q-3.6,4.11-14.87,3.59H649.09q-11.54,0-14.74-3.59t-3.21-12.59V105.78q0-10.22,3.2-13.55T649,88.9h68q11.5,0,14.83,3.59,2.31,2.55,2.56,13.29A20.24,20.24,0,0,1,746,113a20,20,0,0,1,4.6,13,19.45,19.45,0,0,1-6.14,14.45,20.1,20.1,0,0,1-14.57,6A20.54,20.54,0,0,1,709.4,126a20.09,20.09,0,0,1,4.1-12.53A20.84,20.84,0,0,1,724.24,106a16.8,16.8,0,0,0-.51-5.37q-1.8-2-6.65-1.53H649.3q-5.37-.51-6.91,1.53c-.17,0-.51,1.71-1,5.11v132a8.17,8.17,0,0,0,1.41,5.14c.93,1.2,3.2,1.63,6.78,1.28h67.77c3.58.35,5.89-.17,6.91-1.54l.77-5.14V199.69a9.6,9.6,0,0,0-.9-5.53q-1.15-1.92-6.52-1.67h-4.12M741.12,126a9.67,9.67,0,0,0-3.07-7.29,10.34,10.34,0,0,0-7.42-2.94,10,10,0,0,0-7.16,2.94A9.71,9.71,0,0,0,720.4,126a10.14,10.14,0,0,0,3.07,7.42,9.84,9.84,0,0,0,7.16,3.07A10.48,10.48,0,0,0,741.12,126Z"/><path d="M905.42,121.9a20,20,0,0,1-6,14.7,19.67,19.67,0,0,1-14.45,6,20.62,20.62,0,0,1-16.49-33.12,19.92,19.92,0,0,1,10.61-7.29,10.38,10.38,0,0,0-.51-5.37q-1.53-2-6.65-1.53H804.14q-5.37-.51-6.9,1.53l-.77,5.12V215.51q14.58,3.84,14.58,19.69a19,19,0,0,1-5.88,14.71,20.69,20.69,0,0,1-29.16,0,19.81,19.81,0,0,1-6.14-14.71,21.74,21.74,0,0,1,4.48-12.53,18.47,18.47,0,0,1,11.12-7.16V101.69q0-9.45,3.58-13t14.84-3.58h68q11.51,0,14.83,3.58,2.57,2.56,2.56,13.3A19.72,19.72,0,0,1,901,109.11,20,20,0,0,1,905.42,121.9ZM800.82,235.46a10.39,10.39,0,0,0-2.94-7.42,10.19,10.19,0,0,0-14.58,0,11.36,11.36,0,0,0-3.2,7.42,9.8,9.8,0,0,0,3.07,7.16,10.49,10.49,0,0,0,14.83,0A9,9,0,0,0,800.82,235.46ZM896,122.15a10,10,0,0,0-10.23-10.23,9.31,9.31,0,0,0-7.42,2.82,10.49,10.49,0,0,0,7.42,17.9,10.81,10.81,0,0,0,7.29-3.2A9.88,9.88,0,0,0,896,122.15Z"/><path d="M1043.39,172.8v65.42c0,6-1.07,10.18-3.2,12.57s-7.12,3.59-15,3.59H956.94q-11.27.52-14.84-3.59-2.8-3.33-2.81-13.33V180c0-6.66,1.06-11.24,3.2-13.71s6.94-3.55,14.45-3.21h76.22v-57.3a12.92,12.92,0,0,0-.77-5.11c-1.2-1.36-3.58-1.87-7.16-1.53H957.71c-3.42-.34-5.63.17-6.65,1.53q-.27,1.78-.51,5.37a21.69,21.69,0,0,1,10.61,7.42A19.72,19.72,0,0,1,965.38,126a19.49,19.49,0,0,1-6.14,14.45,20.11,20.11,0,0,1-14.58,6A20.52,20.52,0,0,1,924.2,126a20.32,20.32,0,0,1,4.48-13,19.73,19.73,0,0,1,11.63-7.17V98.11a9.63,9.63,0,0,1,2.56-5.62q3.07-3.58,14.84-3.59h68c7.67,0,12.53,1.12,14.58,3.33s3.07,6.74,3.07,13.55v57.3M954.13,126a10.06,10.06,0,0,0-10.24-10.23,10.3,10.3,0,0,0-7.41,2.94,9.67,9.67,0,0,0-3.07,7.29,10.48,10.48,0,0,0,10.48,10.49,9.71,9.71,0,0,0,7.29-3.07A10.35,10.35,0,0,0,954.13,126Zm79,46.81H956.94c-3.41,0-5.54.59-6.39,1.79s-1.2,3-1,5.39v57.5a12.87,12.87,0,0,0,.77,5.14c1,1.36,3.32,1.88,6.9,1.53H1025q5.37.53,6.78-1.28a8.16,8.16,0,0,0,1.41-5.13Z"/><path d="M1092.28,171.07v-68q0-8.94,3.21-12.53T1110.24,87h53q11.3-.51,14.88,3.59,2.82,3.35,2.83,13.34v60.45q0,10-2.82,13.34-3.58,4.09-14.83,3.59h-60.73V214a19.34,19.34,0,0,1,10.74,7.29,20.71,20.71,0,0,1,4.09,12.66,20.52,20.52,0,0,1-20.46,20.46,20.11,20.11,0,0,1-14.58-6,19.49,19.49,0,0,1-6.14-14.45,20.67,20.67,0,0,1,16.11-20.2V181.3m14.84,52.11a10,10,0,0,0-2.94-7.16,9.69,9.69,0,0,0-7.29-3.07,10.1,10.1,0,0,0-7.42,3.07,9.86,9.86,0,0,0-3.07,7.16,10.48,10.48,0,0,0,10.49,10.49,9.73,9.73,0,0,0,7.29-3.07A10.34,10.34,0,0,0,1107.12,233.41Zm63.55-69.25V103.87a12.9,12.9,0,0,0-.77-5.11c-1-1.37-3.33-1.88-6.91-1.54H1110.7q-5.37-.51-6.78,1.28a7.65,7.65,0,0,0-1.4,4.86v67.71h60.73q5.12.26,6.39-1.54T1170.67,164.16Z"/><path d="M1249.91,97.4a19.47,19.47,0,0,1-4.6,12.91,21.78,21.78,0,0,1-11.51,7.29v40.05h74.43q11-.51,14.83,3.58,2.81,3.33,2.81,13.3V217.3a19.72,19.72,0,0,1,10.62,7.41,20.82,20.82,0,0,1,4.22,12.79,19.49,19.49,0,0,1-6.14,14.45,20.11,20.11,0,0,1-14.58,6,20.52,20.52,0,0,1-20.46-20.46,20.32,20.32,0,0,1,4.48-13,19.66,19.66,0,0,1,11.63-7.16V174.53a12.67,12.67,0,0,0-.76-5.11c-1.2-1.37-3.58-1.88-7.17-1.54H1233.8v49.2a20.66,20.66,0,0,1,11.18,7.46,19.94,19.94,0,0,1,4.42,12.6,19.07,19.07,0,0,1-5.92,14.78,20.86,20.86,0,0,1-29.34,0,19,19,0,0,1-5.92-14.75,20.08,20.08,0,0,1,4.35-12.56,19,19,0,0,1,11-7.18V117.19a20.5,20.5,0,0,1-11-7.3,19.53,19.53,0,0,1-4.37-12.44,20.12,20.12,0,0,1,6.08-14.62,19.3,19.3,0,0,1,14.89-5.89,20.08,20.08,0,0,1,14.64,6A19.59,19.59,0,0,1,1249.91,97.4ZM1239.17,237a11.39,11.39,0,0,0-3.16-7.41,10,10,0,0,0-14.4,0,11.39,11.39,0,0,0-3.16,7.41,10.36,10.36,0,0,0,20.72,0Zm0-139.59a9.83,9.83,0,0,0-3-7.29,11,11,0,0,0-7.24-3.2,9.43,9.43,0,0,0-7,3.07,10.69,10.69,0,0,0,0,14.83,9.43,9.43,0,0,0,7,3.07,10.9,10.9,0,0,0,7.24-3.19A9.83,9.83,0,0,0,1239.17,97.4Zm91.31,139.85a9.82,9.82,0,0,0-3.07-7.16A10.1,10.1,0,0,0,1320,227a9.67,9.67,0,0,0-7.29,3.07,10,10,0,0,0-2.94,7.16,10.34,10.34,0,0,0,2.94,7.42,9.7,9.7,0,0,0,7.29,3.06,10.46,10.46,0,0,0,10.49-10.48Z"/></svg>